<svg width="32" height="32" fill="none" xmlns="http://www.w3.org/2000/svg"><path d="M0 16c0 8.837 7.163 16 16 16s16-7.163 16-16S24.837 0 16 0 0 7.163 0 16z" fill="#F00073"/><path d="M16 9.446h3.277c.771 0 1.157.193 1.446.289.385.193.675.29.964.578.289.29.482.579.578.964.096.29.193.675.29 1.446v6.554c0 .771-.194 1.157-.29 1.446-.193.385-.29.675-.578.964-.29.289-.579.482-.964.578-.29.096-.675.193-1.446.29h-6.554c-.771 0-1.157-.194-1.446-.29-.385-.193-.675-.29-.964-.578-.289-.29-.482-.579-.578-.964-.096-.29-.193-.675-.29-1.446V16v-3.277c0-.771.194-1.157.29-1.446.193-.385.29-.675.578-.964.29-.289.579-.482.964-.578.29-.096.675-.193 1.446-.29H16zM16 8h-3.277c-.868 0-1.446.193-1.928.386a4.209 4.209 0 00-1.446.963c-.482.482-.674.868-.963 1.446-.193.482-.29 1.06-.386 1.928v6.554c0 .868.193 1.446.386 1.928.192.482.481.964.963 1.446s.868.674 1.446.963c.482.193 1.06.29 1.928.386h6.554c.868 0 1.446-.193 1.928-.386a4.21 4.21 0 001.446-.963c.482-.482.674-.868.963-1.446.193-.482.29-1.06.386-1.928V16v-3.277c0-.868-.193-1.446-.386-1.928a4.21 4.21 0 00-.963-1.446c-.482-.482-.868-.674-1.446-.963-.482-.193-1.06-.29-1.928-.386H16z" fill="#fff"/><path d="M16 11.855A4.114 4.114 0 0011.855 16 4.114 4.114 0 0016 20.145 4.114 4.114 0 0020.145 16 4.114 4.114 0 0016 11.855zm0 6.844A2.694 2.694 0 0113.301 16 2.694 2.694 0 0116 13.301 2.694 2.694 0 0118.699 16c0 1.446-1.253 2.699-2.699 2.699zM20.241 12.723a.964.964 0 100-1.928.964.964 0 000 1.928z" fill="#fff"/></svg>