<svg width="90" height="20" fill="none" xmlns="http://www.w3.org/2000/svg"><path d="M33.273 17l-.695-2.052h-4.424L27.458 17h-3.674l4.905-12.6h3.354L37.055 17h-3.782zm-1.534-4.77l-1.373-3.906-1.374 3.906h2.747zM37.753 17V3.77h3.318V17h-3.318zM42.797 17V3.77h3.318V17h-3.318zM55.886 7.532H51.41v2.016h4.013v3.042H51.41V17h-3.46V4.4h7.937v3.132zM61.828 17.324c-1.57 0-2.865-.486-3.888-1.458-1.011-.984-1.516-2.226-1.516-3.726 0-1.512.505-2.754 1.516-3.726 1.023-.972 2.319-1.458 3.889-1.458 1.57 0 2.86.492 3.87 1.476 1.023.972 1.534 2.208 1.534 3.708s-.511 2.742-1.534 3.726c-1.022.972-2.313 1.458-3.87 1.458zm-1.498-3.618c.393.408.892.612 1.498.612.607 0 1.1-.204 1.481-.612.393-.408.589-.93.589-1.566s-.197-1.158-.589-1.566c-.38-.408-.874-.612-1.48-.612a2.08 2.08 0 00-1.089.288c-.309.18-.553.438-.731.774a2.277 2.277 0 00-.267 1.116c0 .636.196 1.158.588 1.566zM73.248 17.324c-1.57 0-2.866-.486-3.89-1.458-1.01-.984-1.515-2.226-1.515-3.726 0-1.512.505-2.754 1.516-3.726 1.023-.972 2.319-1.458 3.889-1.458 1.57 0 2.86.492 3.87 1.476 1.023.972 1.534 2.208 1.534 3.708s-.511 2.742-1.534 3.726c-1.022.972-2.313 1.458-3.87 1.458zm-1.499-3.618c.392.408.892.612 1.499.612.606 0 1.1-.204 1.48-.612.393-.408.589-.93.589-1.566s-.196-1.158-.589-1.566c-.38-.408-.874-.612-1.48-.612a2.08 2.08 0 00-1.089.288c-.309.18-.553.438-.731.774a2.277 2.277 0 00-.267 1.116c0 .636.196 1.158.588 1.566zM86.718 3.77H90V17h-2.462l-.303-.72c-.832.696-1.802 1.044-2.907 1.044-1.475 0-2.688-.486-3.64-1.458-.95-.972-1.426-2.214-1.426-3.726s.475-2.754 1.427-3.726c.951-.972 2.164-1.458 3.639-1.458.88 0 1.676.228 2.39.684V3.77zm-3.496 9.972c.416.42.933.63 1.552.63.618 0 1.13-.21 1.534-.63.416-.432.624-.966.624-1.602 0-.312-.06-.606-.178-.882a2.02 2.02 0 00-.446-.702 1.882 1.882 0 00-.696-.468 1.987 1.987 0 00-.838-.18c-.619 0-1.136.216-1.552.648-.405.42-.607.948-.607 1.584 0 .636.202 1.17.607 1.602zM15.676.006C11.6-.244 9.674 7.465 9.674 7.465s-1.05-5.753-4.83-5.683C2.596 1.824-.914 3.704.218 9.532c.73 3.755 3.294 6.431 5.59 8.139.083-.877.34-2.114.229-2.994-.116-.544-.447-.799-.799-1.17-.423-.446-.748-1.028-.748-1.726 0-.064.013-.234.013-.234l.507-4.521h.418l-.147 4.776c-.004.142.1.26.229.26h.075c.126 0 .229-.112.229-.252V7.028l.444-.001v4.783c0 .14.102.252.228.252s.228-.113.228-.252V7.028l.402-.002v4.75c0 .14.102.252.228.253h.087c.129 0 .232-.117.228-.26l-.129-4.742h.459l.496 4.766s.001.102-.001.143c-.036.641-.33 1.115-.719 1.561-.323.371-.683.753-.834 1.252-.088.891.175 2.117.242 2.974.019.247.036.558.05.912C8.707 19.556 9.826 20 9.826 20s1.247-.415 2.875-1.541c.013-.183.027-.361.042-.532.098-1.114.515-2.871.018-3.641-.907-.304-1.947-1.67-1.946-3.584 0-1.899.928-3.645 2.576-3.675v-.001h.043v.001c1.648.03 2.577 1.776 2.577 3.675 0 1.914-1.04 3.28-1.946 3.584-.429.663-.17 2.06-.034 3.146a16.727 16.727 0 004.024-5.141C21.338 5.835 19.752.257 15.676.006z" fill="#31B768"/><path d="M11.884 9.265c.004-.135.015-.217.015-.217s-.048.061-.106.189c-.06.126-.132.31-.195.54a4.746 4.746 0 00-.152.802c-.032.301-.041.628.016.97.03.177.077.327.132.483.058.149.12.29.186.422.137.263.282.492.421.677.138.184.27.325.372.413.1.09.179.11.178.104-.004.005-.056-.047-.114-.167a7.683 7.683 0 01-.226-.498c-.085-.21-.186-.453-.278-.715a4.578 4.578 0 01-.132-.403 2.397 2.397 0 01-.096-.407c-.077-.553-.042-1.174-.038-1.632l.017-.561z" fill="#31B768"/></svg>