<svg width="32" height="32" fill="none" xmlns="http://www.w3.org/2000/svg"><path d="M0 16c0 8.837 7.163 16 16 16s16-7.163 16-16S24.837 0 16 0 0 7.163 0 16z" fill="#E60023"/><path d="M16.05 8C11.621 8 8 11.692 8 16.205c0 3.385 2.012 6.257 4.83 7.487 0-.615 0-1.23.1-1.846.201-.718 1.006-4.513 1.006-4.513s-.302-.512-.302-1.333c0-1.23.705-2.154 1.51-2.154.704 0 1.106.513 1.106 1.23 0 .719-.503 1.847-.704 2.873-.201.82.403 1.538 1.308 1.538 1.51 0 2.516-1.948 2.516-4.41 0-1.846-1.208-3.18-3.32-3.18-2.416 0-3.925 1.847-3.925 3.898 0 .718.201 1.23.503 1.64.101.206.202.206.101.411 0 .103-.1.513-.201.616-.1.205-.202.307-.403.205-1.107-.513-1.61-1.744-1.61-3.18 0-2.359 1.912-5.128 5.735-5.128 3.12 0 5.132 2.256 5.132 4.718 0 3.18-1.71 5.64-4.327 5.64-.905 0-1.71-.512-2.012-1.025 0 0-.503 1.846-.604 2.257a9.166 9.166 0 01-.805 1.743c.705.205 1.51.308 2.315.308 4.427 0 8.049-3.692 8.049-8.205.1-4.103-3.522-7.795-7.949-7.795z" fill="#fff"/></svg>